<svg id="Layer_1" data-name="Layer 1" xmlns="http://www.w3.org/2000/svg" viewBox="0 0 4498.79 2011.48"><defs><style>.cls-1{fill:#03adee;}.cls-2{fill:#2c1a70;}</style></defs><path class="cls-1" d="M952.7,2085.43c.71,61-1.42,122.16,9,182.72,3.18,18.55-1,30.34-22.53,36.74-22.7,6.72-44.48,18.17-66.14,27.91-81.74,36.74-187.89-26-221.24-95.91-77.13-161.65-112.76-329.3-87.27-508.74,24.33-171.3,91.47-318.79,227.3-430.69,102.73-84.62,218.71-104.86,347.5-76.38,161,35.62,296.94,121.39,433.32,207.27,142.19,89.54,274.87,193.16,418,281.3,69,42.46,138,84.88,215.06,111.3,111.2,38.15,210.58-14.6,231.18-135.18a1561.54,1561.54,0,0,0,19-368c-2.14-32-2.47-64.35-7.43-95.94-4-25.58,6.38-37.81,27.7-47.81,66.38-31.15,133.06-47.49,202.65-10.13,56.25,30.19,81.92,83.86,105.26,138.73,59.2,139.23,83.6,283.72,65.35,434.8-19,156.94-76.19,296.07-187.94,410.44-64,65.52-141.43,108-230.87,125.61-62,12.19-124.62,2-184.56-14.09-147.84-39.63-278.29-117.06-405.08-199.28-121.18-78.59-236.88-165.56-357.33-245.31-92.21-61.06-185.56-120.55-292.29-156-89.42-29.72-190.58,17.25-213.54,115.73-22.35,95.82-27.39,193-25.14,290.91C952.85,2072.1,952.71,2078.76,952.7,2085.43Z" transform="translate(-60.31 -332.17)"/><path class="cls-2" d="M3677.19,2295.47c-62.66,46.82-127.3,63-196.29,32.27-71.23-31.68-114.42-87.25-114.38-167.92q.22-401.63,3.26-803.24c.2-26.23-6-33.76-32.53-33.21-65.4,1.37-130.88-.78-196.33-1.31-97.31-.77-182-85.78-181.84-182.76.14-100.44,83-185.63,182.71-185.94q373.82-1.14,747.62-.89c98.74.1,168.89,60.24,189.88,156.93,4.75,21.86.91,26.32-20.76,26.14-111.24-.87-222.49-.26-333.74-.28-43.47,0-59.64,16.38-62.05,59.17-5.86,104-14.8,207.7-24.9,311.4-10.3,105.88-14.92,212.31-21.94,318.51-6.36,96.23-11.22,192.59-19.32,288.67C3590.26,2188,3605.27,2252,3677.19,2295.47Z" transform="translate(-60.31 -332.17)"/><path class="cls-2" d="M4187.56,1645.39q0-251.69,0-503.37c.06-94.51,69.62-174.75,163.6-189.13,85-13,176.3,48.85,202.12,137,10.78,36.82,9.2,38.32-28.37,45.75-28.24,5.58-38.87,26.81-40.75,53.2q-20.13,282-39.9,564.07-13.76,197.38-26.6,394.83c-3.49,55.06,20.67,99.43,62,133.2,19,15.55,12.78,21-2.72,30.62-60.26,37.5-122.95,42.67-185.9,10-66.39-34.48-102-91.35-102.54-166.14-1.26-170-.39-340-.39-510Z" transform="translate(-60.31 -332.17)"/><path class="cls-2" d="M368.38,2296.07c-60,47.64-125.13,62.24-195.61,29.94-71.48-32.77-111.48-88.46-111.52-169.25q-.12-231.15-.16-462.3c0-186.3,1.47-372.61-.77-558.89C59.38,1058.06,121,961.8,231.67,952.86c95.47-7.71,185.7,66.21,199,158.64,2.23,15.5.92,24.12-19.33,24.41-39.26.55-51.24,11.95-54.19,51.06-9.34,123.69-17.33,247.47-26.11,371.2-10.28,144.8-21,289.56-31.18,434.36-4,56.34-9.14,112.7-10,169.11C288.9,2219.81,322,2260.69,368.38,2296.07Z" transform="translate(-60.31 -332.17)"/><path class="cls-2" d="M2721.12,645.27c-.52,169.69-142,310.45-311.57,309.89-169.71-.57-313.58-144-311.08-314.31,2.63-180.28,151.76-314.36,322.73-308.5C2589.72,338.13,2724.28,480,2721.12,645.27Z" transform="translate(-60.31 -332.17)"/></svg>